<?xml version="1.0" standalone="no"?>
<!DOCTYPE svg PUBLIC "-//W3C//DTD SVG 20010904//EN"
 "http://www.w3.org/TR/2001/REC-SVG-20010904/DTD/svg10.dtd">
<svg version="1.0" xmlns="http://www.w3.org/2000/svg"
 width="640.000000pt" height="640.000000pt" viewBox="0 0 640.000000 640.000000"
 preserveAspectRatio="xMidYMid meet">

<g transform="translate(0.000000,640.000000) scale(0.100000,-0.100000)"
fill="#000000" stroke="none">
<path d="M2410 5610 c-218 -26 -437 -114 -617 -248 -262 -196 -436 -469 -510
-802 -14 -66 -17 -178 -20 -886 l-4 -812 -62 -38 c-83 -51 -214 -179 -271
-264 -54 -80 -87 -151 -118 -253 -21 -70 -22 -90 -26 -626 -2 -404 0 -562 8
-582 27 -63 -43 -59 1105 -59 l1045 0 11 -28 c34 -95 113 -177 203 -211 l58
-21 1081 2 1082 3 50 24 c66 33 131 100 163 169 26 54 27 66 30 239 l4 183
-30 29 c-16 16 -45 33 -65 36 l-37 7 0 507 c0 559 -3 593 -61 702 -54 100
-161 188 -284 233 -20 7 -241 12 -645 16 l-615 5 -1 750 c0 664 -2 761 -17
842 -54 291 -188 539 -399 738 -175 167 -433 296 -671 335 -90 15 -300 20
-387 10z m351 -216 c268 -51 484 -173 649 -367 153 -179 238 -388 260 -638 13
-150 13 -450 -1 -485 -14 -38 -148 -169 -249 -244 -126 -93 -122 -93 -92 -2
26 75 26 84 30 396 3 238 0 325 -9 342 -22 43 -66 54 -209 54 -175 0 -208 18
-225 120 -13 76 -49 110 -116 110 -40 0 -99 -56 -99 -94 0 -44 -27 -94 -62
-116 -32 -19 -50 -20 -401 -20 -307 0 -373 -2 -397 -15 -59 -31 -60 -34 -60
-330 0 -284 7 -358 44 -467 l22 -67 -29 17 c-68 40 -198 146 -269 220 l-78 80
0 253 c0 347 23 474 118 664 124 248 352 452 602 540 181 63 399 82 571 49z
m73 -1083 c36 -39 115 -64 219 -69 l97 -4 0 -217 c0 -162 -4 -232 -15 -276
-51 -192 -241 -376 -432 -415 -85 -18 -255 -8 -328 18 -160 59 -303 208 -357
371 -19 58 -22 95 -26 293 l-4 227 339 3 c334 3 339 3 383 27 25 13 56 32 69
42 30 24 34 24 55 0z m-424 -1183 c128 -29 285 -19 428 26 22 7 22 7 22 -106
l-1 -113 -140 -113 c-77 -63 -146 -112 -153 -109 -16 7 -246 194 -268 219 -15
17 -18 40 -18 125 0 105 0 105 23 98 12 -4 60 -16 107 -27z m-80 -494 c193
-161 221 -178 269 -164 24 7 204 146 383 298 13 11 36 12 107 7 l90 -8 -24
-31 c-40 -52 -74 -137 -85 -211 -5 -39 -10 -286 -10 -562 l0 -493 -30 0 c-19
0 -42 -11 -62 -29 -32 -28 -33 -33 -37 -115 l-3 -86 -634 0 -634 0 0 410 c0
446 -1 454 -55 478 -63 29 -126 0 -145 -66 -6 -22 -10 -191 -10 -430 l0 -392
-232 2 -233 3 0 465 c0 520 1 525 72 670 28 57 59 97 128 166 98 99 183 149
302 179 56 14 484 51 613 53 l55 1 175 -145z m2790 65 c55 -25 105 -71 133
-124 22 -39 22 -48 25 -573 l3 -532 -1003 2 -1003 3 -3 490 c-1 318 1 508 8
542 19 90 95 178 176 203 16 4 387 9 824 9 779 1 796 0 840 -20z m290 -1531
c0 -104 -18 -150 -66 -168 -16 -6 -417 -10 -1073 -10 -1048 0 -1048 0 -1075
21 -44 35 -56 70 -56 164 l0 85 1135 0 1135 0 0 -92z"/>
</g>
</svg>
